<mxfile host="app.diagrams.net" modified="2020-08-31T23:59:03.808Z" agent="5.0 (Windows NT 10.0; Win64; x64) AppleWebKit/537.36 (KHTML, like Gecko) Chrome/84.0.4147.135 Safari/537.36" etag="z_ycio0QkTpHi-3pcSN2" version="13.6.6" type="github">
  <diagram id="0JcpLyOJBkAHkDQLnSKv" name="Page-1">
    <mxGraphModel dx="701" dy="391" grid="1" gridSize="10" guides="1" tooltips="1" connect="1" arrows="1" fold="1" page="1" pageScale="1" pageWidth="827" pageHeight="1169" math="0" shadow="0">
      <root>
        <mxCell id="0" />
        <mxCell id="1" parent="0" />
        <mxCell id="T_L8gjn1Xg-bDKmNugly-27" value="" style="rounded=1;whiteSpace=wrap;html=1;" vertex="1" parent="1">
          <mxGeometry x="190" y="270" width="330" height="440" as="geometry" />
        </mxCell>
        <mxCell id="T_L8gjn1Xg-bDKmNugly-1" value="Usuario&amp;nbsp;&lt;br&gt;Registrado" style="shape=umlActor;verticalLabelPosition=bottom;verticalAlign=top;html=1;outlineConnect=0;" vertex="1" parent="1">
          <mxGeometry x="70" y="310" width="30" height="60" as="geometry" />
        </mxCell>
        <mxCell id="T_L8gjn1Xg-bDKmNugly-2" value="Usuario no&lt;br&gt;Registrado" style="shape=umlActor;verticalLabelPosition=bottom;verticalAlign=top;html=1;outlineConnect=0;" vertex="1" parent="1">
          <mxGeometry x="70" y="470" width="30" height="60" as="geometry" />
        </mxCell>
        <mxCell id="T_L8gjn1Xg-bDKmNugly-3" value="Administrador" style="shape=umlActor;verticalLabelPosition=bottom;verticalAlign=top;html=1;outlineConnect=0;" vertex="1" parent="1">
          <mxGeometry x="600" y="450" width="30" height="60" as="geometry" />
        </mxCell>
        <mxCell id="T_L8gjn1Xg-bDKmNugly-7" value="" style="ellipse;whiteSpace=wrap;html=1;" vertex="1" parent="1">
          <mxGeometry x="220" y="290" width="130" height="40" as="geometry" />
        </mxCell>
        <mxCell id="T_L8gjn1Xg-bDKmNugly-10" value="registrar un animalito" style="text;html=1;strokeColor=none;fillColor=none;align=center;verticalAlign=middle;whiteSpace=wrap;rounded=0;" vertex="1" parent="1">
          <mxGeometry x="220" y="300" width="120" height="20" as="geometry" />
        </mxCell>
        <mxCell id="T_L8gjn1Xg-bDKmNugly-11" value="" style="ellipse;whiteSpace=wrap;html=1;" vertex="1" parent="1">
          <mxGeometry x="220" y="350" width="130" height="40" as="geometry" />
        </mxCell>
        <mxCell id="T_L8gjn1Xg-bDKmNugly-12" value="Adoptar animalito" style="text;html=1;strokeColor=none;fillColor=none;align=center;verticalAlign=middle;whiteSpace=wrap;rounded=0;" vertex="1" parent="1">
          <mxGeometry x="225" y="360" width="120" height="20" as="geometry" />
        </mxCell>
        <mxCell id="T_L8gjn1Xg-bDKmNugly-13" value="" style="ellipse;whiteSpace=wrap;html=1;" vertex="1" parent="1">
          <mxGeometry x="220" y="420" width="130" height="40" as="geometry" />
        </mxCell>
        <mxCell id="T_L8gjn1Xg-bDKmNugly-14" value="ver listado de animalitos" style="text;html=1;strokeColor=none;fillColor=none;align=center;verticalAlign=middle;whiteSpace=wrap;rounded=0;" vertex="1" parent="1">
          <mxGeometry x="225" y="430" width="120" height="20" as="geometry" />
        </mxCell>
        <mxCell id="T_L8gjn1Xg-bDKmNugly-15" value="Iniciar sesion&amp;nbsp;" style="ellipse;whiteSpace=wrap;html=1;" vertex="1" parent="1">
          <mxGeometry x="230" y="630" width="250" height="40" as="geometry" />
        </mxCell>
        <mxCell id="T_L8gjn1Xg-bDKmNugly-16" value="" style="ellipse;whiteSpace=wrap;html=1;" vertex="1" parent="1">
          <mxGeometry x="225" y="545" width="130" height="40" as="geometry" />
        </mxCell>
        <mxCell id="T_L8gjn1Xg-bDKmNugly-22" value="Registrar donaciones" style="text;html=1;strokeColor=none;fillColor=none;align=center;verticalAlign=middle;whiteSpace=wrap;rounded=0;" vertex="1" parent="1">
          <mxGeometry x="270" y="555" width="40" height="20" as="geometry" />
        </mxCell>
        <mxCell id="T_L8gjn1Xg-bDKmNugly-23" value="Manejar Base &lt;br&gt;de datos" style="ellipse;whiteSpace=wrap;html=1;" vertex="1" parent="1">
          <mxGeometry x="370" y="320" width="120" height="40" as="geometry" />
        </mxCell>
        <mxCell id="T_L8gjn1Xg-bDKmNugly-24" value="Acualizar sistema" style="ellipse;whiteSpace=wrap;html=1;" vertex="1" parent="1">
          <mxGeometry x="370" y="380" width="120" height="40" as="geometry" />
        </mxCell>
        <mxCell id="T_L8gjn1Xg-bDKmNugly-25" value="Ver contenido infromativo" style="ellipse;whiteSpace=wrap;html=1;" vertex="1" parent="1">
          <mxGeometry x="225" y="480" width="130" height="40" as="geometry" />
        </mxCell>
        <mxCell id="T_L8gjn1Xg-bDKmNugly-28" value="Sistema" style="text;html=1;strokeColor=none;fillColor=none;align=center;verticalAlign=middle;whiteSpace=wrap;rounded=0;" vertex="1" parent="1">
          <mxGeometry x="310" y="240" width="90" height="20" as="geometry" />
        </mxCell>
        <mxCell id="T_L8gjn1Xg-bDKmNugly-36" value="" style="endArrow=classic;html=1;entryX=0;entryY=0.75;entryDx=0;entryDy=0;" edge="1" parent="1" target="T_L8gjn1Xg-bDKmNugly-10">
          <mxGeometry width="50" height="50" relative="1" as="geometry">
            <mxPoint x="120" y="340" as="sourcePoint" />
            <mxPoint x="230" y="440" as="targetPoint" />
          </mxGeometry>
        </mxCell>
        <mxCell id="T_L8gjn1Xg-bDKmNugly-38" value="" style="endArrow=classic;html=1;entryX=0;entryY=0.75;entryDx=0;entryDy=0;" edge="1" parent="1" target="T_L8gjn1Xg-bDKmNugly-12">
          <mxGeometry width="50" height="50" relative="1" as="geometry">
            <mxPoint x="120" y="340" as="sourcePoint" />
            <mxPoint x="230" y="440" as="targetPoint" />
          </mxGeometry>
        </mxCell>
        <mxCell id="T_L8gjn1Xg-bDKmNugly-40" value="" style="endArrow=classic;html=1;entryX=0;entryY=0.5;entryDx=0;entryDy=0;" edge="1" parent="1" target="T_L8gjn1Xg-bDKmNugly-13">
          <mxGeometry width="50" height="50" relative="1" as="geometry">
            <mxPoint x="120" y="340" as="sourcePoint" />
            <mxPoint x="230" y="440" as="targetPoint" />
          </mxGeometry>
        </mxCell>
        <mxCell id="T_L8gjn1Xg-bDKmNugly-41" value="" style="endArrow=classic;html=1;entryX=0;entryY=0.5;entryDx=0;entryDy=0;" edge="1" parent="1" target="T_L8gjn1Xg-bDKmNugly-25">
          <mxGeometry width="50" height="50" relative="1" as="geometry">
            <mxPoint x="120" y="340" as="sourcePoint" />
            <mxPoint x="230" y="440" as="targetPoint" />
          </mxGeometry>
        </mxCell>
        <mxCell id="T_L8gjn1Xg-bDKmNugly-42" value="" style="endArrow=classic;html=1;entryX=0;entryY=0.5;entryDx=0;entryDy=0;" edge="1" parent="1" target="T_L8gjn1Xg-bDKmNugly-16">
          <mxGeometry width="50" height="50" relative="1" as="geometry">
            <mxPoint x="120" y="340" as="sourcePoint" />
            <mxPoint x="230" y="440" as="targetPoint" />
          </mxGeometry>
        </mxCell>
        <mxCell id="T_L8gjn1Xg-bDKmNugly-44" value="" style="endArrow=classic;html=1;entryX=0;entryY=0.5;entryDx=0;entryDy=0;" edge="1" parent="1" target="T_L8gjn1Xg-bDKmNugly-15">
          <mxGeometry width="50" height="50" relative="1" as="geometry">
            <mxPoint x="120" y="350" as="sourcePoint" />
            <mxPoint x="230" y="440" as="targetPoint" />
          </mxGeometry>
        </mxCell>
        <mxCell id="T_L8gjn1Xg-bDKmNugly-46" value="" style="endArrow=classic;html=1;" edge="1" parent="1">
          <mxGeometry width="50" height="50" relative="1" as="geometry">
            <mxPoint x="110" y="510" as="sourcePoint" />
            <mxPoint x="230" y="440" as="targetPoint" />
          </mxGeometry>
        </mxCell>
        <mxCell id="T_L8gjn1Xg-bDKmNugly-47" value="" style="endArrow=classic;html=1;entryX=0;entryY=0.5;entryDx=0;entryDy=0;" edge="1" parent="1" target="T_L8gjn1Xg-bDKmNugly-25">
          <mxGeometry width="50" height="50" relative="1" as="geometry">
            <mxPoint x="110" y="510" as="sourcePoint" />
            <mxPoint x="230" y="440" as="targetPoint" />
          </mxGeometry>
        </mxCell>
        <mxCell id="T_L8gjn1Xg-bDKmNugly-48" value="" style="endArrow=classic;html=1;entryX=1;entryY=0.5;entryDx=0;entryDy=0;" edge="1" parent="1" target="T_L8gjn1Xg-bDKmNugly-23">
          <mxGeometry width="50" height="50" relative="1" as="geometry">
            <mxPoint x="560" y="500" as="sourcePoint" />
            <mxPoint x="230" y="440" as="targetPoint" />
          </mxGeometry>
        </mxCell>
        <mxCell id="T_L8gjn1Xg-bDKmNugly-49" value="" style="endArrow=classic;html=1;entryX=1;entryY=0.5;entryDx=0;entryDy=0;" edge="1" parent="1" target="T_L8gjn1Xg-bDKmNugly-24">
          <mxGeometry width="50" height="50" relative="1" as="geometry">
            <mxPoint x="560" y="500" as="sourcePoint" />
            <mxPoint x="230" y="440" as="targetPoint" />
          </mxGeometry>
        </mxCell>
        <mxCell id="T_L8gjn1Xg-bDKmNugly-50" value="" style="endArrow=classic;html=1;entryX=1;entryY=0.5;entryDx=0;entryDy=0;" edge="1" parent="1" target="T_L8gjn1Xg-bDKmNugly-15">
          <mxGeometry width="50" height="50" relative="1" as="geometry">
            <mxPoint x="560" y="500" as="sourcePoint" />
            <mxPoint x="230" y="440" as="targetPoint" />
          </mxGeometry>
        </mxCell>
        <mxCell id="T_L8gjn1Xg-bDKmNugly-51" value="" style="endArrow=classic;startArrow=classic;html=1;entryX=1;entryY=0.5;entryDx=0;entryDy=0;exitX=1;exitY=0.5;exitDx=0;exitDy=0;" edge="1" parent="1" source="T_L8gjn1Xg-bDKmNugly-14" target="T_L8gjn1Xg-bDKmNugly-25">
          <mxGeometry width="50" height="50" relative="1" as="geometry">
            <mxPoint x="388" y="545" as="sourcePoint" />
            <mxPoint x="438" y="495" as="targetPoint" />
            <Array as="points">
              <mxPoint x="570" y="500" />
            </Array>
          </mxGeometry>
        </mxCell>
      </root>
    </mxGraphModel>
  </diagram>
</mxfile>
